<mxfile host="65bd71144e" modified="2020-11-27T02:31:09.428Z" agent="5.0 (Windows NT 10.0; Win64; x64) AppleWebKit/537.36 (KHTML, like Gecko) Code/1.51.1 Chrome/83.0.4103.122 Electron/9.3.3 Safari/537.36" etag="mj7WgQZyRwfr9qiEIGSL" version="13.6.5">
    <diagram id="6hGFLwfOUW9BJ-s0fimq" name="Page-1">
        <mxGraphModel dx="1422" dy="812" grid="1" gridSize="10" guides="1" tooltips="1" connect="1" arrows="1" fold="1" page="1" pageScale="1" pageWidth="827" pageHeight="1169" math="0" shadow="0">
            <root>
                <mxCell id="0"/>
                <mxCell id="1" parent="0"/>
                <mxCell id="27" value="" style="rounded=0;whiteSpace=wrap;html=1;dashed=1;" parent="1" vertex="1">
                    <mxGeometry x="130" y="200" width="440" height="180" as="geometry"/>
                </mxCell>
                <mxCell id="22" value="" style="rounded=0;whiteSpace=wrap;html=1;dashed=1;" parent="1" vertex="1">
                    <mxGeometry x="130" y="450" width="440" height="160" as="geometry"/>
                </mxCell>
                <mxCell id="7" value="METAL FLOW&lt;br&gt;(SERVER)" style="rounded=1;whiteSpace=wrap;html=1;" parent="1" vertex="1">
                    <mxGeometry x="310" y="250" width="240" height="80" as="geometry"/>
                </mxCell>
                <mxCell id="19" value="METAL BEAT&lt;br&gt;(SERVICE)" style="rounded=1;whiteSpace=wrap;html=1;" parent="1" vertex="1">
                    <mxGeometry x="190" y="500" width="100" height="60" as="geometry"/>
                </mxCell>
                <mxCell id="20" value="BARE METAL&lt;br&gt;(UBUNTU)" style="rounded=1;whiteSpace=wrap;html=1;" parent="1" vertex="1">
                    <mxGeometry x="340" y="480" width="170" height="100" as="geometry"/>
                </mxCell>
                <mxCell id="26" value="ETCD" style="shape=cylinder;whiteSpace=wrap;html=1;boundedLbl=1;backgroundOutline=1;" parent="1" vertex="1">
                    <mxGeometry x="155" y="220" width="60" height="60" as="geometry"/>
                </mxCell>
                <mxCell id="31" value="&lt;font style=&quot;font-size: 9px&quot;&gt;POSTGRES&lt;/font&gt;" style="shape=cylinder;whiteSpace=wrap;html=1;boundedLbl=1;backgroundOutline=1;" vertex="1" parent="1">
                    <mxGeometry x="155" y="300" width="60" height="60" as="geometry"/>
                </mxCell>
                <mxCell id="35" value="" style="edgeStyle=elbowEdgeStyle;elbow=horizontal;endArrow=classic;html=1;exitX=1;exitY=0.5;exitDx=0;exitDy=0;entryX=0;entryY=0.5;entryDx=0;entryDy=0;" edge="1" parent="1" source="31" target="7">
                    <mxGeometry width="50" height="50" relative="1" as="geometry">
                        <mxPoint x="220" y="480" as="sourcePoint"/>
                        <mxPoint x="270" y="430" as="targetPoint"/>
                    </mxGeometry>
                </mxCell>
                <mxCell id="36" value="" style="edgeStyle=elbowEdgeStyle;elbow=horizontal;endArrow=classic;html=1;exitX=1;exitY=0.5;exitDx=0;exitDy=0;entryX=0;entryY=0.5;entryDx=0;entryDy=0;" edge="1" parent="1" source="26" target="7">
                    <mxGeometry width="50" height="50" relative="1" as="geometry">
                        <mxPoint x="260" y="250" as="sourcePoint"/>
                        <mxPoint x="310" y="200" as="targetPoint"/>
                    </mxGeometry>
                </mxCell>
                <mxCell id="37" value="METAL VIEW&lt;br&gt;(WEB)" style="rounded=1;whiteSpace=wrap;html=1;" vertex="1" parent="1">
                    <mxGeometry x="130" y="50" width="440" height="80" as="geometry"/>
                </mxCell>
                <mxCell id="39" value="" style="shape=flexArrow;endArrow=classic;startArrow=classic;html=1;exitX=0.5;exitY=0;exitDx=0;exitDy=0;entryX=0.5;entryY=1;entryDx=0;entryDy=0;" edge="1" parent="1" source="27" target="37">
                    <mxGeometry width="50" height="50" relative="1" as="geometry">
                        <mxPoint x="330" y="190" as="sourcePoint"/>
                        <mxPoint x="380" y="140" as="targetPoint"/>
                    </mxGeometry>
                </mxCell>
                <mxCell id="40" value="" style="shape=flexArrow;endArrow=classic;startArrow=classic;html=1;entryX=0.5;entryY=1;entryDx=0;entryDy=0;" edge="1" parent="1" target="27">
                    <mxGeometry width="50" height="50" relative="1" as="geometry">
                        <mxPoint x="350" y="452" as="sourcePoint"/>
                        <mxPoint x="360" y="140" as="targetPoint"/>
                    </mxGeometry>
                </mxCell>
                <mxCell id="41" value="" style="endArrow=classic;startArrow=classic;html=1;entryX=0;entryY=0.5;entryDx=0;entryDy=0;exitX=1;exitY=0.5;exitDx=0;exitDy=0;" edge="1" parent="1" source="19" target="20">
                    <mxGeometry width="50" height="50" relative="1" as="geometry">
                        <mxPoint x="270" y="650" as="sourcePoint"/>
                        <mxPoint x="320" y="600" as="targetPoint"/>
                    </mxGeometry>
                </mxCell>
                <mxCell id="42" value="DEVOPS" style="rounded=0;whiteSpace=wrap;html=1;dashed=1;" vertex="1" parent="1">
                    <mxGeometry x="670" y="50" width="160" height="560" as="geometry"/>
                </mxCell>
                <mxCell id="43" value="" style="shape=flexArrow;endArrow=classic;startArrow=classic;html=1;exitX=1;exitY=0.5;exitDx=0;exitDy=0;entryX=0.001;entryY=0.428;entryDx=0;entryDy=0;entryPerimeter=0;" edge="1" parent="1" source="27" target="42">
                    <mxGeometry width="50" height="50" relative="1" as="geometry">
                        <mxPoint x="610" y="320" as="sourcePoint"/>
                        <mxPoint x="660" y="270" as="targetPoint"/>
                    </mxGeometry>
                </mxCell>
                <mxCell id="44" value="REST" style="text;html=1;strokeColor=none;fillColor=none;align=center;verticalAlign=middle;whiteSpace=wrap;rounded=0;" vertex="1" parent="1">
                    <mxGeometry x="374" y="160" width="40" height="20" as="geometry"/>
                </mxCell>
                <mxCell id="46" value="REST" style="text;html=1;strokeColor=none;fillColor=none;align=center;verticalAlign=middle;whiteSpace=wrap;rounded=0;" vertex="1" parent="1">
                    <mxGeometry x="600" y="250" width="40" height="20" as="geometry"/>
                </mxCell>
                <mxCell id="47" value="gRPC" style="text;html=1;strokeColor=none;fillColor=none;align=center;verticalAlign=middle;whiteSpace=wrap;rounded=0;" vertex="1" parent="1">
                    <mxGeometry x="374" y="410" width="40" height="20" as="geometry"/>
                </mxCell>
                <mxCell id="48" value="ANSIBLE" style="rounded=1;whiteSpace=wrap;html=1;" vertex="1" parent="1">
                    <mxGeometry x="690" y="70" width="120" height="60" as="geometry"/>
                </mxCell>
                <mxCell id="50" value="ZABBIX" style="rounded=1;whiteSpace=wrap;html=1;" vertex="1" parent="1">
                    <mxGeometry x="690" y="160" width="120" height="60" as="geometry"/>
                </mxCell>
            </root>
        </mxGraphModel>
    </diagram>
</mxfile>